<svg xmlns="http://www.w3.org/2000/svg" xmlns:xlink="http://www.w3.org/1999/xlink" viewBox="0 0 618.12 506.01"><defs><style>.cls-1,.cls-11,.cls-13,.cls-21,.cls-25,.cls-3{fill:none;}.cls-2{fill:#e8acb3;opacity:0.94;}.cls-3{stroke:#bd475f;}.cls-10,.cls-11,.cls-13,.cls-15,.cls-21,.cls-3{stroke-linecap:round;stroke-linejoin:round;}.cls-4{fill:#fef0eb;}.cls-5{fill:#bd475f;}.cls-6{fill:#fdede9;}.cls-7{clip-path:url(#clip-path);}.cls-8{fill:#e37182;}.cls-9{fill:#010101;}.cls-10{fill:#998876;}.cls-10,.cls-11,.cls-15,.cls-16{stroke:#251e18;}.cls-10,.cls-11,.cls-15,.cls-16,.cls-21,.cls-25{stroke-width:0.75px;}.cls-12{fill:#b3a28d;}.cls-13{stroke:#e2e0db;stroke-width:0.66px;}.cls-14,.cls-16{fill:#ee7673;}.cls-15{fill:#71a9a8;}.cls-16,.cls-25{stroke-miterlimit:10;}.cls-17{fill:#d85856;}.cls-18{fill:#251e18;}.cls-19{fill:#413b90;}.cls-20{fill:#7183c0;}.cls-21{stroke:#feecdd;}.cls-22{fill:#e15252;}.cls-23{fill:#f7a837;}.cls-24{fill:#fbc68b;}.cls-25{stroke:#fccfa0;}</style><clipPath id="clip-path" transform="translate(-48.96)"><rect id="SVGID" class="cls-1" y="39.98" width="624" height="416" rx="30.95"/></clipPath></defs><title>Asset 2</title><g id="Layer_2" data-name="Layer 2"><g id="Layer_1-2" data-name="Layer 1"><path class="cls-2" d="M182.55,259.72c2.56-14.69,19.47-23.2,33.24-25.61s28.45-2.46,40.63-9.31c27.93-15.72,31.83-60.52,62.18-70.8,14.87-5,31.35.39,46.82-2.35,18.1-3.21,34.68-15.8,43-32.18C448.36,41,493.36,8,592.06.33c12.31-1,25.28,0,36.06,6,14.18,7.93,22.14,23.8,26.12,39.55,10.16,40.14-.27,82.27-.87,123.67-.49,33.47,5.49,66.63,9.4,99.87,5.48,46.55,6.86,94.07-2.57,140-4.85,23.62-13,47.43-29.39,65.09s-45.67,27.18-68.43,19.21C528.27,510.6,484.93,507,454,484.8c-11.95-8.6-22.55-19.91-33.8-29.62s-23.17-17.84-37.71-20.07c-11.37-1.74-22.92.51-34.41,1.08-19.72,1-36.57-5.94-42.62-26-2.54-8.39-3.15-17.23-4.64-25.86-3.2-18.41-12.39-32.86-32.18-34.24-16.2-1.13-34.8,5.33-48.55-6.44-12.27-10.51-10.55-30.82-21.25-42.93" transform="translate(-48.96)"/><line class="cls-3" x1="310.5" y1="263.09" x2="339.73" y2="263.98"/><line class="cls-3" x1="324.95" y1="277.46" x2="325.06" y2="249.36"/><line class="cls-3" x1="331.29" y1="270.53" x2="317.4" y2="254.79"/><line class="cls-3" x1="317.02" y1="270.23" x2="332.89" y2="256.23"/><circle class="cls-4" cx="316.4" cy="380.03" r="6"/><circle class="cls-4" cx="458.4" cy="145.03" r="3"/><circle class="cls-4" cx="343.06" cy="343.7" r="3"/><circle class="cls-4" cx="554.4" cy="349.03" r="3"/><circle class="cls-4" cx="551.4" cy="440.03" r="3"/><path class="cls-5" d="M344.8,171.7a1.72,1.72,0,1,1-1.72-1.72A1.72,1.72,0,0,1,344.8,171.7Z" transform="translate(-48.96)"/><circle class="cls-5" cx="457.34" cy="103.03" r="1.72"/><path class="cls-4" d="M405.36,194a1.72,1.72,0,1,1-1.72-1.72A1.72,1.72,0,0,1,405.36,194Z" transform="translate(-48.96)"/><circle class="cls-4" cx="264.4" cy="318.03" r="1.72"/><path class="cls-4" d="M354.08,336.31a1.72,1.72,0,1,1-1.72-1.72A1.72,1.72,0,0,1,354.08,336.31Z" transform="translate(-48.96)"/><path class="cls-4" d="M612.08,404a1.72,1.72,0,1,1-1.72-1.72A1.72,1.72,0,0,1,612.08,404Z" transform="translate(-48.96)"/><path class="cls-4" d="M591.08,210a1.72,1.72,0,1,1-1.72-1.72A1.72,1.72,0,0,1,591.08,210Z" transform="translate(-48.96)"/><path class="cls-4" d="M471.8,396a1.72,1.72,0,1,1-1.72-1.72A1.72,1.72,0,0,1,471.8,396Z" transform="translate(-48.96)"/><path class="cls-6" d="M232.08,326.31a1.72,1.72,0,1,1-1.72-1.72A1.72,1.72,0,0,1,232.08,326.31Z" transform="translate(-48.96)"/><circle class="cls-4" cx="215.26" cy="268.9" r="1.72"/><circle class="cls-4" cx="256.4" cy="192.09" r="1.72"/><polygon class="cls-6" points="284.4 260.04 272.58 274.57 253.85 274.4 242.31 259.64 246.65 241.42 263.6 233.45 280.4 241.73 284.4 260.04"/><polygon class="cls-6" points="413.94 111.52 408.75 117.9 400.52 117.83 395.46 111.35 397.36 103.34 404.81 99.85 412.18 103.48 413.94 111.52"/><rect class="cls-3" x="360.08" y="208.53" width="11" height="11" transform="translate(209.46 -195.82) rotate(45)"/><rect class="cls-5" x="277.53" y="225.62" width="4.83" height="4.83" transform="translate(194.27 -131.16) rotate(45)"/><rect class="cls-5" x="522.53" y="177.62" width="4.83" height="4.83" transform="translate(232.09 -318.46) rotate(45)"/><rect class="cls-5" x="347.03" y="295.12" width="4.83" height="4.83" transform="translate(263.77 -159.95) rotate(45)"/><rect class="cls-5" x="523.94" y="373.62" width="4.83" height="4.83" transform="translate(371.1 -262.05) rotate(45)"/><rect class="cls-5" x="555.94" y="96.04" width="4.83" height="4.83" transform="translate(184.2 -365.99) rotate(45)"/><rect class="cls-5" x="432.99" y="360.6" width="2.74" height="2.74" transform="translate(334.21 -201.12) rotate(45)"/><rect class="cls-5" x="425.99" y="433.6" width="2.74" height="2.74" transform="translate(383.78 -174.79) rotate(45)"/><rect class="cls-5" x="313.94" y="358.2" width="4.83" height="4.83" transform="translate(298.69 -118.08) rotate(45)"/><rect class="cls-3" x="333.13" y="377.53" width="32.23" height="32.23" transform="translate(-131.83 694) rotate(-83.22)"/><path class="cls-3" d="M269.63,305,260.28,303l.52-9.56-4.94,8.44-8.67-4,4.92,7.41s-7.75,4.34-7.71,4.56l9.46-.64L252.69,318l5-7.83,5.58,6.18-1.49-8.76Z" transform="translate(-48.96)"/><line class="cls-3" x1="526.87" y1="392.6" x2="544.98" y2="393.15"/><line class="cls-3" x1="535.82" y1="401.5" x2="535.89" y2="384.09"/><line class="cls-3" x1="539.75" y1="397.21" x2="531.14" y2="387.45"/><line class="cls-3" x1="530.91" y1="397.02" x2="540.74" y2="388.35"/><polygon class="cls-6" points="379.56 410.02 361.54 403.27 343.52 396.52 358.37 384.29 373.23 372.05 376.4 391.04 379.56 410.02"/><path class="cls-3" d="M477.36,168l-8,.52-1.64-9.46-2.23,9.28-7.72-.43,5.92,3.66-2.25,8.21c.11.17,6.26-6.21,6.26-6.21l6.07,5.32c.07.15-2.7-6.83-2.7-6.83Z" transform="translate(-48.96)"/><line class="cls-3" x1="352.29" y1="152.49" x2="370.4" y2="153.03"/><line class="cls-3" x1="361.24" y1="161.39" x2="361.31" y2="143.98"/><line class="cls-3" x1="365.17" y1="157.1" x2="356.56" y2="147.34"/><line class="cls-3" x1="356.33" y1="156.91" x2="366.16" y2="148.23"/><g class="cls-7"><path class="cls-8" d="M528.34,506a54,54,0,1,1,54-54A54,54,0,0,1,528.34,506Zm0-89.95a36,36,0,1,0,36,36A36,36,0,0,0,528.34,416.06Z" transform="translate(-48.96)"/><circle class="cls-8" cx="557.4" cy="140.03" r="47"/><circle class="cls-3" cx="503.84" cy="142.03" r="26.22"/><circle class="cls-4" cx="531.4" cy="142.03" r="6"/></g><path class="cls-3" d="M224.73,259.66c4.67-1,12-2.49,16.65-3.52" transform="translate(-48.96)"/><line class="cls-3" x1="172.4" y1="254.03" x2="181.27" y2="247.53"/><path class="cls-3" d="M223.26,266.17c4,2.73,4.51,3.39,8.47,6.11" transform="translate(-48.96)"/><polygon class="cls-9" points="134.65 261.54 165.31 261.7 148.98 296.2 120.36 295.24 134.65 261.54"/><path class="cls-10" d="M198,298.88l-1.67,2.34a3.52,3.52,0,0,1-2.87,1.48H153.3l-20.81,0a3.53,3.53,0,0,1-3.53-3.55h0l69.08-.25" transform="translate(-48.96)"/><path class="cls-11" d="M198.13,298.78l-1.35,1.94a4.62,4.62,0,0,1-3.8,2h-39.6l-21.69,0" transform="translate(-48.96)"/><line class="cls-11" x1="105.54" y1="302.7" x2="105.54" y2="299.45"/><polygon class="cls-12" points="149.4 298.87 116.65 299.2 119.15 294.91 150.4 294.91 149.4 298.87"/><path class="cls-12" d="M195.28,298.87l18.77-39.27,2.25.06.17.41s-12.89,24.59-18.11,39.3" transform="translate(-48.96)"/><path class="cls-12" d="M168.3,298.78s12.24-27.68,16.75-39.06h-2.5c-4.8,12.59-16.15,38.19-16.15,38.19" transform="translate(-48.96)"/><path class="cls-12" d="M181.61,262.22h33.81a13.81,13.81,0,0,1,.94-2.31c-.06-.25-33.66,0-33.66,0S182.28,260.87,181.61,262.22Z" transform="translate(-48.96)"/><path class="cls-10" d="M197.81,299.5h1.6a2,2,0,0,0,1.82-1.15L218.29,263a2,2,0,0,0-1.82-2.9h0l-18.34,38.71" transform="translate(-48.96)"/><path class="cls-11" d="M170.11,289c3.92-9.6,8.52-19.71,12.44-29.31h33.57" transform="translate(-48.96)"/><line class="cls-11" x1="112.52" y1="299.03" x2="148.61" y2="299.03"/><path class="cls-13" d="M187.81,276.09q1.47,2.9,3,5.79" transform="translate(-48.96)"/><path class="cls-13" d="M189.05,271.74l5,9.16" transform="translate(-48.96)"/><path class="cls-14" d="M75.69,289.53c6-10.14,20.49-25.14,26-35.5,4.27,1.32,8.42.79,12.68,2.11C111.35,276.47,98.18,293.41,85,309.2Z" transform="translate(-48.96)"/><path class="cls-11" d="M94.69,264.53a88.18,88.18,0,0,1,5.82-8.68" transform="translate(-48.96)"/><path class="cls-11" d="M106.79,278.34a107,107,0,0,0,7.52-20.48" transform="translate(-48.96)"/><path class="cls-15" d="M51.29,242.2h18a0,0,0,0,1,0,0v14.27a4.39,4.39,0,0,1-4.39,4.39H55.69a4.39,4.39,0,0,1-4.39-4.39V242.2A0,0,0,0,1,51.29,242.2Z"/><path class="cls-16" d="M104.38,246.93c0,1.32-1.6,2.39-3.57,2.39s-3.58-1.07-3.58-2.39,1.6-2.39,3.58-2.39S104.38,245.61,104.38,246.93Z" transform="translate(-48.96)"/><ellipse class="cls-14" cx="67.4" cy="243.53" rx="6.33" ry="3.17"/><path class="cls-14" d="M122.69,254.7c0,1.75-2.83,3.17-6.33,3.17S110,256.45,110,254.7s2.83-3.17,6.33-3.17S122.69,253,122.69,254.7Z" transform="translate(-48.96)"/><path class="cls-14" d="M123,248.87c0,1.75-3.43,3.16-7.66,3.16s-7.66-1.41-7.66-3.16,3.43-3.17,7.66-3.17S123,247.12,123,248.87Z" transform="translate(-48.96)"/><path class="cls-11" d="M112.22,245.93c-1.34-.58-2.19-1.44-2.19-2.4,0-1.74,2.83-3.16,6.33-3.16s6.33,1.42,6.33,3.16c0,1.06-1,2-2.6,2.57" transform="translate(-48.96)"/><path class="cls-11" d="M118.64,251.75c2.37.45,4,1.6,4,2.95,0,1.75-2.83,3.17-6.33,3.17S110,256.45,110,254.7c0-1.19,1.32-2.23,3.27-2.77" transform="translate(-48.96)"/><path class="cls-11" d="M115.35,245.7a15.63,15.63,0,0,1,4.71.67c1.8.58,3,1.48,3,2.5,0,1.75-3.43,3.16-7.66,3.16s-7.66-1.41-7.66-3.16c0-1.29,1.85-2.39,4.51-2.89a17.25,17.25,0,0,1,3.15-.28" transform="translate(-48.96)"/><path class="cls-11" d="M100.78,224.28c-.06-4.06,3.2-5.39,3.09-8.69C103.74,212,100,210,99,206.67a9,9,0,0,1,1.13-7.23c1.52-2.45,3.87-3.07,6-4.72a7.28,7.28,0,0,0,2.38-3.57c.31-.94.87-3.3-.32-3.8-1.34-.57-1.88.49-2.19,1.27-.59,1.5.19,3.52,1.18,4.67,2.18,2.54,5.88,3.1,8.14,5.5s1.9,5.82.77,8.57c-1.25,3-4.74,5.77-4.21,9.28.34,2.26,2.32,4.11,2.9,6.39.68,2.7-.59,5.86-2.32,8.09-4.34,5.58-4.42,7.66-4.42,7.66a14.54,14.54,0,0,0-2.17-4.66C103.66,230.68,100.85,229.72,100.78,224.28Z" transform="translate(-48.96)"/><polygon class="cls-17" points="13.4 393.29 25.57 406.07 31.27 400.22 18.15 388.91 13.4 393.29"/><path class="cls-12" d="M49.35,405.48C49,406,62.53,393,62.53,393,66.21,397.52,74.61,406,74.61,406h0c-.44.49-.75.81-1,1.1a4.74,4.74,0,0,0-1.34,3.37c.09,5,.16,18-1.29,20.19l-1.57,1.53a2,2,0,0,1-3-.27C59.84,422.64,53.59,413.64,49.35,405.48Z" transform="translate(-48.96)"/><path class="cls-11" d="M49.34,405.69c4.24,8.16,10.48,17.15,17,26.38a2,2,0,0,0,3,.28l1.57-1.53c1.46-2.21,1.38-15.33,1.3-20.26a4.69,4.69,0,0,1,1.22-3.24c2.18-2.4,4.11-4.69,6.53-7" transform="translate(-48.96)"/><path class="cls-11" d="M49.35,405.48c-.35.51,17.76-16.57,17.76-16.57" transform="translate(-48.96)"/><path class="cls-11" d="M62.61,393.45l11.88,12.67" transform="translate(-48.96)"/><path class="cls-18" d="M51.69,403.4l18,28.65-.26.32a2,2,0,0,1-3.09-.15l-9.93-14.5-7.23-12Z" transform="translate(-48.96)"/><polygon class="cls-18" points="18.27 388.54 31.27 400.22 16.71 390.47 18.27 388.54"/><path class="cls-11" d="M66.05,427.06a9.5,9.5,0,0,1,6-2" transform="translate(-48.96)"/><path class="cls-11" d="M69,419.52a11.56,11.56,0,0,0,3.16.17" transform="translate(-48.96)"/><path class="cls-11" d="M68.36,414.68l3.5.39" transform="translate(-48.96)"/><path class="cls-11" d="M68.54,410.16l3.32.88" transform="translate(-48.96)"/><circle class="cls-11" cx="13.23" cy="402.2" r="2.5"/><path class="cls-19" d="M113.81,356.33c-1.08,6-2.56,13.52-6.2,18.45-2,2.79-17.25,25.25-22,30.5-7.27-7.12-20.42-17.63-27.19-25.25h0c6.82-9.32,19.89-15.65,23.75-22.18L66.24,345.14c3.68-1.51,9.57-1.28,13.37-.12C91.3,348.59,102.12,352.76,113.81,356.33Z" transform="translate(-48.96)"/><path class="cls-11" d="M113.69,356.33c-1.08,6-2.57,13.52-6.2,18.45-2.06,2.79-17.25,25.25-22,30.5-7.28-7.12-20.3-17.63-27.07-25.25h0c6.82-9.32,19.76-15.65,23.63-22.18-5.32-4.23-10.8-9-16.11-13.23" transform="translate(-48.96)"/><path class="cls-11" d="M75.28,392.46a207.36,207.36,0,0,0,20-26.1c2.46-3.78,4.83-7.71,8.17-10.74" transform="translate(-48.96)"/><polygon class="cls-14" points="63.91 411.6 81.23 413.27 81.02 406.41 64.08 405.88 63.91 411.6"/><path class="cls-12" d="M112.07,432.09c.11.61.8-20.49.8-20.49l17.32,1.67h-.09l.12,2.35a6.13,6.13,0,0,0,1.86,4.08,147.35,147.35,0,0,1,11.22,11.86,8.33,8.33,0,0,1,1.79,5.23h0a2,2,0,0,1-2.27,1.89C131.66,436.78,120.86,434.85,112.07,432.09Z" transform="translate(-48.96)"/><path class="cls-11" d="M112.15,432.25c8.79,2.77,19.59,4.7,30.75,6.6a1.94,1.94,0,0,0,2.27-1.89h0a8.19,8.19,0,0,0-1.68-5.09,148.58,148.58,0,0,0-11.33-12,6.07,6.07,0,0,1-1.86-4.08c-.15-3.13-.32-6.31-.27-9.5" transform="translate(-48.96)"/><path class="cls-11" d="M112.07,432.09c.11.61,1-25.81,1-25.81" transform="translate(-48.96)"/><path class="cls-11" d="M112.85,411.76l17.33,1.66" transform="translate(-48.96)"/><path class="cls-18" d="M112.23,428.66l32.63,7.62,0,.41a1.94,1.94,0,0,1-2.27,2.1l-16.69-2.92-13.87-3.78Z" transform="translate(-48.96)"/><polyline class="cls-18" points="63.9 405.54 81.4 406.24 63.77 409.08"/><path class="cls-11" d="M133.35,426.35l3.72-1.54" transform="translate(-48.96)"/><line class="cls-11" x1="81.09" y1="423.48" x2="84.92" y2="421.78"/><line class="cls-11" x1="78.07" y1="420.08" x2="82.27" y2="418.85"/><path class="cls-11" d="M136.62,434.27a7.42,7.42,0,0,1,4.42-4.85" transform="translate(-48.96)"/><path class="cls-20" d="M105.86,405.87c10.67-.3,43.33,1.66,43.33,1.66.59,2.77-6.91-37.3-10.33-61-1.05-7.28-6-12.66-13.88-14.59-5.6-1.38-19.45-4.07-27.93-6.79-1.17-1.15-3.66-7.84-3.94-9.46H54.42s-4.06,7.22-2.66,14.69c1.71,9.18,9.74,12.79,17.68,15.58a338,338,0,0,0,33.06,9.2q2.93.7,5.86,1.37C108.75,366.38,106.26,388.44,105.86,405.87Z" transform="translate(-48.96)"/><path class="cls-11" d="M105.69,405.7c10.67-.29,43.34,1.67,43.34,1.67.16.16-6.91-37.3-10.34-61-1.05-7.29-6-12.67-13.87-14.6-5.61-1.38-19.46-4.07-27.93-6.78-1.18-1.15-3.67-7.84-4-9.47H54.26s-4.07,7.22-2.67,14.69c1.71,9.19,9.74,12.8,17.69,15.58,10.78,3.79,22,6.54,33.06,9.21,2,.46,3.9.93,5.85,1.37C108.58,366.21,106.09,388.27,105.69,405.7Z" transform="translate(-48.96)"/><path class="cls-18" d="M52.86,319.42s40.25-3.73,40-3.89H54.36" transform="translate(-48.96)"/><path class="cls-21" d="M68.86,318.05a19.58,19.58,0,0,0,3.72,14.1c5.76,7.66,42.31,13,46.45,14.88,3.39,19.1-1.37,36.71.66,56" transform="translate(-48.96)"/><path class="cls-21" d="M70.1,327.52a13.63,13.63,0,0,0,7-9" transform="translate(-48.96)"/><path class="cls-21" d="M107.37,396.23q19.23-.93,38.49-.56" transform="translate(-48.96)"/><path class="cls-11" d="M125.83,333.55a24.51,24.51,0,0,0,12.72,14.07" transform="translate(-48.96)"/><path class="cls-14" d="M91.52,244.19c-1,6-5.08,10.32-12.58,9.14a11,11,0,1,1,12.58-9.14Z" transform="translate(-48.96)"/><path class="cls-14" d="M90.3,241.52c1,.59,1.08.69,2.08,1.28.48.29,1,.65,1.06,1.21a1.21,1.21,0,0,1-.9,1.14,3.57,3.57,0,0,1-1.56,0" transform="translate(-48.96)"/><path class="cls-11" d="M92.38,242.8l-.73-.44a11,11,0,1,0-12.71,11c7.06,1.11,11.14-2.66,12.38-8.12a2.79,2.79,0,0,0,1.22-.06,1.21,1.21,0,0,0,.9-1.14C93.4,243.45,92.86,243.09,92.38,242.8Z" transform="translate(-48.96)"/><path class="cls-18" d="M76.73,243.29a25.05,25.05,0,0,1-6.55,2.82,12.25,12.25,0,0,1,.19-7.69,12,12,0,0,1,4.94-5.77A11.53,11.53,0,0,1,81,231.31a10.27,10.27,0,0,1,5.35,1.57l-.68,1.21a23.64,23.64,0,0,1-5.84,7l-.12.1a2,2,0,0,0-2.72-.1,1.9,1.9,0,0,0-.19,2.16Z" transform="translate(-48.96)"/><path class="cls-18" d="M83.42,237.34a1.8,1.8,0,1,0,3.56-.59,3.16,3.16,0,0,0,1.77,1.47,2.13,2.13,0,0,0,2.19-.26,2.33,2.33,0,0,0,.44-2.68,4.5,4.5,0,0,0-2.08-2,3.75,3.75,0,0,0-3.24-.39" transform="translate(-48.96)"/><path class="cls-14" d="M81.72,241.77a2.84,2.84,0,1,1-2.36-3.24A2.83,2.83,0,0,1,81.72,241.77Z" transform="translate(-48.96)"/><polygon class="cls-6" points="24.07 248.21 29.4 241.67 32.06 249.48 24.07 248.21"/><path class="cls-18" d="M76,232.76S68.58,236.64,62.8,234s-6.85-6.11-5.36-9.41,5-5.15,10.74-2.55S76,232.76,76,232.76Z" transform="translate(-48.96)"/><path class="cls-11" d="M87.49,246.09A3.53,3.53,0,0,0,90,247.77" transform="translate(-48.96)"/><path class="cls-18" d="M90,241.74a.43.43,0,0,1-.48.35.42.42,0,0,1-.34-.48.42.42,0,0,1,.82.13Z" transform="translate(-48.96)"/><circle class="cls-22" cx="37.06" cy="242.2" r="1.5"/><path class="cls-14" d="M121.09,281.6c.49,0,2.68-.24,3.18-.25a193.64,193.64,0,0,0,21.92-1.87c3.27-.5,6.63-1.11,9.86-.39l.87.19a21.33,21.33,0,0,1,14.89,14.35,1.55,1.55,0,0,1,0,.31,1.73,1.73,0,0,1-2.63,1.05c-1.91-1.16-4.7-3.14-4.7-3.14,1.24,2.3,2.46,4.65,3.77,6.93h-6.77l-.15-.12c-.05.34-.09.68-.14,1a1.63,1.63,0,0,1-2.52,1.14,4.38,4.38,0,0,1-1.42-3c-.38-2.1-.77-4.21-1.15-6.31l-.11-.22c-2,4.77-7.87,6.82-13,8.11-5.48,1.37-11.11,2.57-16.54,3.56l-3.89.67Z" transform="translate(-48.96)"/><path class="cls-11" d="M147.69,283c3.52-.13,7.54-.4,10.56.41a5.08,5.08,0,0,1,3.19,2.75,10,10,0,0,1,.57,4.15,73.52,73.52,0,0,1-.77,9.61c-.16,1.09-1.7,1.44-2.57.77a4.62,4.62,0,0,1-1.33-2.94c-.38-2.11-.72-5-1.11-7.11" transform="translate(-48.96)"/><path class="cls-11" d="M161.8,286.91s6.33,11.79,6.5,11.87" transform="translate(-48.96)"/><path class="cls-11" d="M156.23,290.62c-1.68,5.32-8,7.56-13.37,8.91s-19.75,3.89-20.43,4" transform="translate(-48.96)"/><path class="cls-18" d="M127.3,302.6S123,288.74,121.36,282c.27,6.62.84,14.55,1,21.18" transform="translate(-48.96)"/><path class="cls-11" d="M121,281.52c.5,0,2.69-.24,3.18-.26a188.94,188.94,0,0,0,21.92-1.87c3.28-.49,6.63-1.1,9.86-.38l.88.19a21.3,21.3,0,0,1,14.88,14.35,1.1,1.1,0,0,1,0,.31,1.74,1.74,0,0,1-2.63,1.05c-1.91-1.17-4.7-3.15-4.7-3.15" transform="translate(-48.96)"/><path class="cls-23" d="M95.66,303.79c.09,2.75.27,6.18.4,9.25v0a2.52,2.52,0,0,1-2.53,2.63H53.89a2.71,2.71,0,0,1-2.64-3.31v0c2.25-9.9,4.53-21.13,6.5-31.08,1.68-8.44,5-15.89,13.41-19.41,10.7-4.46,20,1.3,26.62,9.63a126.65,126.65,0,0,0,9,10.38c4.87,0,9.26-.3,14.14-.42l.23.07a186.25,186.25,0,0,1,1.43,22l.07.45a128,128,0,0,1-20.82,1.59,15.81,15.81,0,0,1-6.15-1.78" transform="translate(-48.96)"/><path class="cls-24" d="M120.91,281.47l-4.13.16a136,136,0,0,1,1.06,23c1.55-.18,3-.38,4.54-.62C122,295.41,121.48,286.35,120.91,281.47Z" transform="translate(-48.96)"/><path class="cls-11" d="M122.5,303.77a125.76,125.76,0,0,1-20.81,1.59,14.36,14.36,0,0,1-6.2-1.49,13.09,13.09,0,0,1-1.94-1.16,28.38,28.38,0,0,1-4.36-4.13l-14.75-16.1" transform="translate(-48.96)"/><path class="cls-24" d="M95.92,312.28c0,.23,0,.5,0,.78a2.53,2.53,0,0,1-2.52,2.62H53.76a2.71,2.71,0,0,1-2.64-3.31v0" transform="translate(-48.96)"/><path class="cls-11" d="M95.49,303.87c.09,2.75.39,6,.52,9.09v0a2.52,2.52,0,0,1-2.52,2.63H53.85a2.71,2.71,0,0,1-2.64-3.32v0c2.25-9.91,4.53-21.13,6.5-31.08,1.68-8.44,5-15.9,13.41-19.42,10.69-4.46,20,1.3,26.62,9.64a132,132,0,0,0,9,10.38c4.88,0,9.27-.3,14.15-.42h0" transform="translate(-48.96)"/><path class="cls-11" d="M75,286.53c-.31.05,8.13,5.63,8.13,5.63" transform="translate(-48.96)"/><path class="cls-25" d="M83.69,267A1.67,1.67,0,1,1,82,265.37,1.66,1.66,0,0,1,83.69,267Z" transform="translate(-48.96)"/><path class="cls-25" d="M65.36,279a1.67,1.67,0,1,1-1.67-1.66A1.67,1.67,0,0,1,65.36,279Z" transform="translate(-48.96)"/><path class="cls-25" d="M95.61,278.78a1.67,1.67,0,1,1-1.67-1.66A1.67,1.67,0,0,1,95.61,278.78Z" transform="translate(-48.96)"/><path class="cls-25" d="M96.53,299.45a1.67,1.67,0,1,1-1.67-1.67A1.67,1.67,0,0,1,96.53,299.45Z" transform="translate(-48.96)"/><path class="cls-25" d="M108.69,287a1.67,1.67,0,1,1-1.66-1.66A1.66,1.66,0,0,1,108.69,287Z" transform="translate(-48.96)"/><path class="cls-24" d="M95.72,287.48a1.22,1.22,0,1,1-2.44,0,1.22,1.22,0,1,1,2.44,0Z" transform="translate(-48.96)"/><path class="cls-24" d="M61.58,296.15a1.22,1.22,0,1,1-1.22-1.23A1.22,1.22,0,0,1,61.58,296.15Z" transform="translate(-48.96)"/><path class="cls-24" d="M72.25,292.48A1.23,1.23,0,1,1,71,291.26,1.22,1.22,0,0,1,72.25,292.48Z" transform="translate(-48.96)"/><path class="cls-24" d="M84.92,305.15a1.23,1.23,0,1,1-1.23-1.23A1.23,1.23,0,0,1,84.92,305.15Z" transform="translate(-48.96)"/><path class="cls-24" d="M92.92,307.81a1.23,1.23,0,1,1-1.23-1.22A1.22,1.22,0,0,1,92.92,307.81Z" transform="translate(-48.96)"/><path class="cls-24" d="M59.58,307.81a1.22,1.22,0,1,1-1.22-1.22A1.22,1.22,0,0,1,59.58,307.81Z" transform="translate(-48.96)"/><circle class="cls-24" cx="38.9" cy="270.03" r="1.22"/><circle class="cls-24" cx="20.4" cy="268.53" r="1.22"/><circle class="cls-24" cx="58.15" cy="299.03" r="1.22"/><path class="cls-25" d="M115.36,298a1.67,1.67,0,1,1-1.67-1.66A1.67,1.67,0,0,1,115.36,298Z" transform="translate(-48.96)"/><path class="cls-25" d="M81.69,279.7A1.67,1.67,0,1,1,80,278,1.66,1.66,0,0,1,81.69,279.7Z" transform="translate(-48.96)"/><path class="cls-25" d="M81.69,295A1.67,1.67,0,1,1,80,293.37,1.66,1.66,0,0,1,81.69,295Z" transform="translate(-48.96)"/><path class="cls-25" d="M72.69,304.7A1.67,1.67,0,1,1,71,303,1.66,1.66,0,0,1,72.69,304.7Z" transform="translate(-48.96)"/><path class="cls-11" d="M122.43,303.53a182.09,182.09,0,0,0-1.43-22" transform="translate(-48.96)"/></g></g></svg>