<svg xmlns="http://www.w3.org/2000/svg" viewBox="0 0 294.58 287.54"><defs><style>.cls-1,.cls-2{fill:none;stroke:#e8acb3;stroke-linecap:round;stroke-linejoin:round;}.cls-2{stroke-width:1.21px;}</style></defs><title>Asset 3</title><g id="Layer_2" data-name="Layer 2"><g id="Layer_1-2" data-name="Layer 1"><path class="cls-1" d="M184,47.4c-1.24-5.15,2.42-12.14,7.61-13.23,2.25-.48,4.76-.21,6.67-1.5C201.73,30.32,200.63,25,202,21c1.6-4.72,7.06-7.37,12-6.88,5.19.51,7.52,5,10.12,8.86a12.73,12.73,0,0,0,8.7,5.6c3.93.52,7.53-1.89,11.43-1.47a11.69,11.69,0,0,1,10,12.11c1.41-3.8,7-4.36,10.34-2s4.9,6.37,6.3,10.18Z"/><path class="cls-2" d="M220.06,286.94c1.3-4.93,5.91-8.53,10.56-8.23a8.82,8.82,0,0,0,3.51,0c3.4-1.2,2.78-6.59,3.49-10.46a11.5,11.5,0,0,1,7.7-8.73,13.47,13.47,0,0,1,11.17,1.88c3.85,2.47,7.24,9.48,6.37,13.21a1.17,1.17,0,0,1-2.29-.37,7.82,7.82,0,0,1,2.71-4.63,5.16,5.16,0,0,1,6.55-.05c2.83,2.34,3.2,7.3,6.24,9.29,3.24,2.12,7.37-.39,11.11.09,3.59.45,6.63,4.05,6.79,8Z"/><path class="cls-1" d="M.57,32.87C2.5,26.43,9.46,21.59,16.68,21.65c3.09,0,6.31.84,9.19-.17,3.1-1.09,5-4,6.11-6.89s1.78-6,3.57-8.55a13.63,13.63,0,0,1,21.63-.41c2.14,2.84,3.08,6.62,6.2,8.52,2.83,1.71,13.27,1.33,16.37,2.57a14.67,14.67,0,0,1,7.68,7.18,43.07,43.07,0,0,1,3.42,10.9H.5Z"/></g></g></svg>